<svg width="224" height="21" fill="none" xmlns="http://www.w3.org/2000/svg"><g clip-path="url(#clip0)"><path d="M0 10.07a8.371 8.371 0 008.391 8.306 8.371 8.371 0 008.307-8.39 8.371 8.371 0 00-8.39-8.308C3.691 1.678-.043 5.454 0 10.07z" fill="#505248"/><path d="M21.9 9.943a8.371 8.371 0 008.392 8.308 8.371 8.371 0 008.307-8.391 8.371 8.371 0 00-8.39-8.308A8.371 8.371 0 0021.9 9.943z" fill="#003A3A"/><path d="M43.844 9.818a8.371 8.371 0 008.39 8.307 8.371 8.371 0 008.308-8.391 8.371 8.371 0 00-8.391-8.308c-4.657.042-8.35 3.776-8.307 8.392z" fill="#00ADAC"/><path d="M65.744 9.734a8.371 8.371 0 008.391 8.307 8.371 8.371 0 008.307-8.391 8.371 8.371 0 00-8.39-8.307c-4.616 0-8.35 3.776-8.308 8.39z" fill="#0389AD"/><path d="M87.645 9.608a8.371 8.371 0 008.391 8.307c4.615-.042 8.349-3.776 8.307-8.391a8.371 8.371 0 00-8.39-8.307 8.371 8.371 0 00-8.308 8.39z" fill="#244770"/><path d="M121.923 12.88h-4.909l-1.091 3.021c-.168.42-.545.671-.965.671-.545 0-1.007-.461-1.007-1.048 0-.126 0-.21.042-.336l4.405-12.251c.168-.42.588-.755 1.091-.755.462 0 .923.335 1.091.797l4.405 12.25c.042.085.042.253.042.337 0 .545-.419 1.048-1.048 1.048-.42 0-.798-.251-.965-.67l-1.091-3.064zm-2.434-6.838l-1.72 4.825h3.482l-1.762-4.825zm9.188.713v8.81c0 .588-.461 1.05-1.049 1.05-.587 0-1.09-.462-1.09-1.05V3.357a1.2 1.2 0 011.174-1.174c.462 0 .839.21 1.007.587l5.245 9.272v-8.81c0-.588.503-1.05 1.091-1.05.545 0 1.048.462 1.048 1.05V15.44c0 .67-.545 1.174-1.174 1.174-.42 0-.797-.251-1.007-.587l-5.245-9.272zm11.496 2.727c-1.552-.671-2.349-1.888-2.349-3.44 0-2.392 2.223-3.818 4.489-3.818 1.091 0 2.266.21 3.314.67.42.169.798.462.798 1.008 0 .503-.42.965-1.007.965-.126 0-.252 0-.378-.084-.461-.168-1.175-.587-2.811-.587-.965 0-2.266.42-2.266 1.762 0 .923.462 1.342 1.259 1.72l2.266 1.007c1.51.671 2.937 1.594 2.937 3.734 0 2.433-1.721 4.237-4.448 4.237-1.174 0-2.517-.335-3.566-.755-.378-.168-.629-.503-.629-.923 0-.545.377-1.007.965-1.007.251 0 .461.042.629.126.839.378 1.678.63 2.601.63 1.427 0 2.308-.714 2.308-2.014 0-1.007-.839-1.679-1.72-2.098l-2.392-1.133zm17.58 2.224c0 2.936-1.972 4.908-4.909 4.908s-4.909-1.972-4.909-4.909V7.133c0-2.936 1.972-4.908 4.909-4.908s4.909 1.972 4.909 4.908v4.574zm-2.14-4.7c0-1.762-1.007-2.852-2.769-2.852-1.762 0-2.811 1.048-2.811 2.853v4.824c0 1.763 1.007 2.853 2.811 2.853 1.762 0 2.769-1.048 2.769-2.853V7.007zm6.209-.251v8.81c0 .588-.461 1.05-1.049 1.05-.587 0-1.09-.462-1.09-1.05V3.357a1.2 1.2 0 011.174-1.174c.42 0 .839.21 1.007.587l5.245 9.272v-8.81c0-.588.503-1.05 1.091-1.05.545 0 1.048.462 1.048 1.05V15.44c0 .67-.545 1.174-1.174 1.174-.42 0-.797-.251-1.007-.587l-5.245-9.272zM175.416.378c0-.21.168-.378.378-.378.209 0 .419.168.419.378v19.215c0 .21-.168.378-.419.378a.376.376 0 01-.378-.378V.378zm8.349 16.026c-.713 0-1.301-.587-1.301-1.258V3.692c0-.713.588-1.259 1.301-1.259h3.272c2.35 0 3.944 1.553 3.944 3.86 0 1.05-.461 2.014-1.342 2.77 1.174.796 1.72 2.013 1.72 3.188 0 2.475-1.678 4.153-4.154 4.153h-3.44zm2.979-8.265c1.217 0 2.098-.797 2.098-1.846 0-1.174-.588-1.846-1.805-1.846h-2.433V8.14h2.14zm.419 6.252c1.343 0 2.056-.797 2.056-2.14 0-1.175-1.007-2.098-2.391-2.098h-2.266v4.238h2.601zm13.132-1.511h-4.909l-1.132 3.063c-.168.42-.546.671-.965.671-.546 0-1.007-.461-1.007-1.049 0-.125.042-.21.042-.335l4.405-12.251c.168-.42.587-.755 1.091-.755.461 0 .923.335 1.091.797l4.405 12.25c.042.085.042.252.042.336 0 .546-.462 1.05-1.049 1.05-.419 0-.797-.253-.965-.672l-1.049-3.105zm-2.475-6.838l-1.72 4.824h3.482l-1.762-4.824zm8.349 10.362c-.671 0-1.3-.545-1.3-1.258V3.692c0-.671.587-1.259 1.3-1.259h5.79a1.04 1.04 0 011.049 1.05c0 .545-.462.964-1.049.964h-4.951V8.14h4.699c.588 0 1.049.42 1.049 1.007 0 .546-.461 1.007-1.049 1.007h-4.699v4.238h5.119c.545 0 1.049.42 1.049 1.007s-.462 1.006-1.049 1.006h-5.958zm12.545-5.874h-1.804v5.035c0 .588-.504 1.05-1.049 1.05a1.039 1.039 0 01-1.049-1.05V3.692c0-.713.587-1.259 1.301-1.259h3.692c1.174 0 2.181.378 2.937 1.133.755.755 1.174 1.804 1.174 2.979 0 1.217-.419 2.224-1.132 2.937-.462.461-1.049.755-1.721.923l2.769 4.657c.084.168.168.378.168.545 0 .504-.461 1.007-1.049 1.007-.377 0-.713-.168-.881-.503l-3.356-5.58zm1.133-2.013c.923 0 1.972-.378 1.972-2.014 0-1.217-.714-2.098-1.972-2.098h-2.895v4.112h2.895z" fill="#3A352E"/></g><defs><clipPath id="clip0"><path fill="#fff" d="M0 0h224v20.013H0z"/></clipPath></defs></svg>