<svg width="76" height="76" fill="none" xmlns="http://www.w3.org/2000/svg"><circle cx="38" cy="38" r="38" fill="#00ADAC"/><path d="M33.412 23.4V43h-4.536V27.04h-3.92V23.4h8.456zM51.46 39.304V43H36.649v-2.94l7.56-7.14c.802-.765 1.344-1.419 1.624-1.96.28-.56.42-1.11.42-1.652 0-.784-.271-1.381-.812-1.792-.523-.43-1.298-.644-2.324-.644-.86 0-1.634.168-2.324.504a4.331 4.331 0 00-1.736 1.456l-3.304-2.128c.765-1.139 1.82-2.025 3.164-2.66 1.344-.653 2.884-.98 4.62-.98 1.456 0 2.725.243 3.808.728 1.1.467 1.95 1.139 2.548 2.016.616.859.924 1.876.924 3.052a6.834 6.834 0 01-.672 2.996c-.448.933-1.316 1.997-2.604 3.192l-4.508 4.256h8.428zM29.335 49.64l-3.084 6.996c-.272.648-.592 1.104-.96 1.368-.36.264-.796.396-1.308.396-.312 0-.616-.052-.912-.156a1.807 1.807 0 01-.72-.432l.492-.864c.328.312.708.468 1.14.468.28 0 .512-.076.696-.228.192-.144.364-.396.516-.756l.204-.444-2.808-6.348h1.2l2.22 5.088 2.196-5.088h1.128zm6.648 3.216c0 .088-.008.204-.024.348h-5.16c.072.56.316 1.012.732 1.356.424.336.948.504 1.572.504.76 0 1.372-.256 1.836-.768l.636.744a2.777 2.777 0 01-1.08.768c-.424.176-.9.264-1.428.264-.672 0-1.268-.136-1.788-.408a3.033 3.033 0 01-1.212-1.164 3.357 3.357 0 01-.42-1.68c0-.616.136-1.172.408-1.668.28-.496.66-.88 1.14-1.152a3.244 3.244 0 011.644-.42c.608 0 1.148.14 1.62.42.48.272.852.656 1.116 1.152.272.496.408 1.064.408 1.704zm-3.144-2.304c-.552 0-1.016.168-1.392.504-.368.336-.584.776-.648 1.32h4.08c-.064-.536-.284-.972-.66-1.308-.368-.344-.828-.516-1.38-.516zm6.883-.972c.88 0 1.553.216 2.017.648.472.432.708 1.076.708 1.932V56h-1.093v-.84a1.853 1.853 0 01-.828.684c-.352.152-.772.228-1.26.228-.712 0-1.283-.172-1.715-.516-.425-.344-.637-.796-.637-1.356s.204-1.008.612-1.344c.408-.344 1.056-.516 1.944-.516h1.825v-.228c0-.496-.145-.876-.433-1.14-.288-.264-.712-.396-1.272-.396-.376 0-.744.064-1.104.192a2.76 2.76 0 00-.911.492l-.48-.864c.328-.264.72-.464 1.175-.6.456-.144.94-.216 1.452-.216zm-.264 5.604c.44 0 .82-.096 1.14-.288.32-.2.553-.48.697-.84v-.888h-1.776c-.977 0-1.465.328-1.465.984 0 .32.124.572.372.756.248.184.593.276 1.032.276zm6.224-4.476c.2-.368.496-.648.888-.84.392-.192.868-.288 1.428-.288v1.116a2.249 2.249 0 00-.264-.012c-.624 0-1.116.188-1.476.564-.352.368-.528.896-.528 1.584V56h-1.152v-6.36h1.104v1.068zm5.607 5.364c-.52 0-1.02-.068-1.5-.204-.48-.144-.856-.324-1.128-.54l.48-.912c.28.2.62.36 1.02.48s.804.18 1.212.18c1.008 0 1.512-.288 1.512-.864a.56.56 0 00-.204-.456 1.235 1.235 0 00-.516-.24 9.055 9.055 0 00-.864-.18 8.75 8.75 0 01-1.26-.276 1.937 1.937 0 01-.828-.528c-.232-.248-.348-.596-.348-1.044 0-.576.24-1.036.72-1.38.48-.352 1.124-.528 1.932-.528.424 0 .848.052 1.272.156.424.104.772.244 1.044.42l-.492.912c-.52-.336-1.132-.504-1.836-.504-.488 0-.86.08-1.116.24-.256.16-.384.372-.384.636 0 .208.072.372.216.492.144.12.32.208.528.264.216.056.516.12.9.192.512.088.924.184 1.236.288.32.096.592.264.816.504.224.24.336.576.336 1.008 0 .576-.248 1.036-.744 1.38-.488.336-1.156.504-2.004.504z" fill="#fff"/></svg>