<svg width="76" height="76" fill="none" xmlns="http://www.w3.org/2000/svg"><circle cx="38" cy="38" r="38" fill="#00ADAC"/><path d="M29.24 23.064c2.744 0 4.89.84 6.44 2.52 1.55 1.661 2.324 4.06 2.324 7.196 0 2.221-.42 4.125-1.26 5.712-.822 1.587-1.988 2.79-3.5 3.612-1.512.821-3.258 1.232-5.236 1.232-1.046 0-2.044-.112-2.996-.336-.952-.243-1.764-.579-2.436-1.008l1.68-3.332c.952.653 2.174.98 3.668.98 1.661 0 2.977-.485 3.948-1.456.97-.99 1.493-2.408 1.568-4.256-1.176 1.176-2.8 1.764-4.872 1.764-1.25 0-2.39-.252-3.416-.756-1.027-.504-1.839-1.213-2.436-2.128-.598-.933-.896-2.007-.896-3.22 0-1.307.326-2.455.98-3.444.653-.99 1.54-1.745 2.66-2.268 1.138-.541 2.398-.812 3.78-.812zm.336 9.24c.99 0 1.792-.27 2.408-.812.634-.56.952-1.27.952-2.128 0-.859-.308-1.559-.924-2.1-.598-.541-1.428-.812-2.492-.812-.97 0-1.764.261-2.38.784-.598.523-.896 1.232-.896 2.128 0 .896.298 1.615.896 2.156.616.523 1.428.784 2.436.784zm17.324-1.54c2.763 0 4.797.55 6.104 1.652 1.325 1.101 1.988 2.576 1.988 4.424a6.218 6.218 0 01-.896 3.276c-.597.97-1.512 1.755-2.744 2.352-1.213.579-2.716.868-4.508.868-1.381 0-2.744-.177-4.088-.532-1.325-.373-2.455-.896-3.388-1.568l1.792-3.472c.747.56 1.605.999 2.576 1.316.97.299 1.97.448 2.996.448 1.139 0 2.035-.224 2.688-.672.653-.448.98-1.073.98-1.876 0-.84-.345-1.475-1.036-1.904-.672-.43-1.848-.644-3.528-.644h-5.012L41.832 23.4h11.956v3.64h-8.176l-.308 3.724H46.9zM35.65 52.136c-.616 0-1.12-.208-1.512-.624-.384-.424-.576-.988-.576-1.692s.192-1.264.576-1.68c.392-.424.896-.636 1.512-.636s1.116.212 1.5.636c.384.416.576.976.576 1.68s-.192 1.268-.576 1.692c-.384.416-.884.624-1.5.624zm5.004-4.536h1.428L36.346 56h-1.428l5.736-8.4zm-5.004 3.552a.726.726 0 00.636-.336c.16-.224.24-.556.24-.996 0-.44-.08-.772-.24-.996a.726.726 0 00-.636-.336c-.264 0-.476.116-.636.348-.16.224-.24.552-.24.984 0 .432.08.764.24.996.16.224.372.336.636.336zm5.7 4.944c-.4 0-.76-.092-1.08-.276a1.963 1.963 0 01-.732-.816c-.176-.352-.264-.76-.264-1.224 0-.464.088-.872.264-1.224.176-.352.42-.62.732-.804.32-.192.68-.288 1.08-.288.616 0 1.116.212 1.5.636.392.416.588.976.588 1.68s-.196 1.268-.588 1.692c-.384.416-.884.624-1.5.624zm0-.984a.726.726 0 00.636-.336c.16-.232.24-.564.24-.996 0-.432-.08-.76-.24-.984a.72.72 0 00-.636-.348.745.745 0 00-.636.336c-.16.224-.24.556-.24.996 0 .44.08.772.24.996.16.224.372.336.636.336z" fill="#fff"/></svg>