<svg width="76" height="76" fill="none" xmlns="http://www.w3.org/2000/svg"><circle cx="38" cy="38" r="38" fill="#00ADAC"/><path d="M43.013 43.8h-9.1L32.177 48H27.53l8.736-19.6h4.48L49.51 48h-4.76l-1.736-4.2zm-1.428-3.444l-3.108-7.504-3.108 7.504h6.216zm-5.908-13.692c-.56 0-1.026-.177-1.4-.532-.373-.373-.56-.84-.56-1.4 0-.56.187-1.017.56-1.372.374-.373.84-.56 1.4-.56.56 0 1.018.187 1.372.56.374.355.56.812.56 1.372s-.186 1.027-.56 1.4c-.354.355-.812.532-1.372.532zm5.656 0c-.56 0-1.026-.177-1.4-.532-.354-.373-.532-.84-.532-1.4 0-.56.178-1.017.532-1.372.374-.373.84-.56 1.4-.56.56 0 1.027.187 1.4.56.374.355.56.812.56 1.372s-.186 1.027-.56 1.4c-.373.355-.84.532-1.4.532z" fill="#fff"/></svg>