<svg width="77" height="76" fill="none" xmlns="http://www.w3.org/2000/svg"><circle cx="38.5" cy="38" r="38" fill="#00ADAC"/><g clip-path="url(#clip0)"><path fill-rule="evenodd" clip-rule="evenodd" d="M40.667 48.111a10.08 10.08 0 01-8.96-5.444h8.96v-3.111H30.68A10.318 10.318 0 0130.556 38c0-.529.046-1.042.124-1.556h9.987v-3.11h-8.96a10.098 10.098 0 018.96-5.445c2.504 0 4.806.918 6.58 2.442L50 27.578A13.93 13.93 0 0040.667 24c-6.098 0-11.263 3.904-13.191 9.333H22v3.111h4.76a12.858 12.858 0 000 3.112H22v3.11h5.476C29.404 48.097 34.569 52 40.666 52A13.9 13.9 0 0050 48.422l-2.769-2.753a9.964 9.964 0 01-6.564 2.442z" fill="#fff"/></g><defs><clipPath id="clip0"><path fill="#fff" transform="translate(22 24)" d="M0 0h28v28H0z"/></clipPath></defs></svg>