<svg width="40" height="40" fill="none" xmlns="http://www.w3.org/2000/svg"><path fill-rule="evenodd" clip-rule="evenodd" d="M20 0C8.957 0 0 8.953 0 20c0 11.045 8.957 20 20 20 11.045 0 20-8.955 20-20C40 8.953 31.045 0 20 0zm0 9.167c-6.443 0-11.667 4.836-11.667 10.801 0 3.4 1.697 6.434 4.349 8.414V32.5l3.971-2.18a12.54 12.54 0 003.347.452c6.443 0 11.667-4.837 11.667-10.804 0-5.965-5.224-10.801-11.667-10.801zm1.16 14.546l-2.972-3.168-5.796 3.168 6.376-6.768 3.044 3.168 5.725-3.168-6.377 6.768z" fill="#00ADAC"/></svg>