<svg width="77" height="76" fill="none" xmlns="http://www.w3.org/2000/svg"><circle cx="38.5" cy="38" r="38" fill="#00ADAC"/><path d="M48.453 29.476a1.019 1.019 0 00-.735-.325c-.059 0-.144.015-.26.044l-8.567 2.12 3.699-10.017a.887.887 0 00.108-.39.858.858 0 00-.281-.637.96.96 0 00-.692-.271h-7.096a.982.982 0 00-.606.195.927.927 0 00-.346.497l-4.349 17.849c-.072.346.022.627.282.844a1 1 0 00.67.238c.115 0 .202-.007.26-.022l8.783-2.185-4.262 17.48a.82.82 0 00.098.65.914.914 0 00.551.41c.145.03.246.044.303.044.419 0 .721-.18.91-.54l11.682-25.032c.158-.346.108-.663-.152-.952z" fill="#fff"/></svg>