<svg width="77" height="76" fill="none" xmlns="http://www.w3.org/2000/svg"><circle cx="38.5" cy="38" r="38" fill="#00ADAC"/><path d="M30.13 30.267c-.257.06-.093.05-.307.077-.913.197-.235.372.307-.077zm16.061.367c.066-.044.296-.268-.42-.487.043.224-.148.202-.148.328.53.481.749 1.318 1.427 1.493.131-.602-.602-.897-.859-1.334zm-16.548-.542c.082.487.448-.514.454-.87a4.38 4.38 0 01-.432.23c.344.175.044.361-.328.64-.755.94.705-.733.306 0zM39 24c-7.733 0-14 6.267-14 14 0 7.727 6.267 14 14 14s14-6.273 14-14c0-7.733-6.267-14-14-14zm.372 4.692l.066.022c-.263.34 1.367 1.329.196 1.411-1.093.312.46-.284-.388-.18.448-.624-.355-.635.126-1.253zm-6.64.897c-.393-.328-1.629.449-1.197.263 1.072-.422.071.043.323.546-.23.476-.077-.47-.646.093-.41.093-1.416 1.023-1.29.739-.033.443-1.198.968-1.356 1.706-.383 1.023-.093-.038-.164-.438-.547-.694-1.543 1.176-1.247 1.915.497-.875.46-.093.098.295.366.672-.334 1.547.361 2.045.306.071.919-1.028.65.115.187-.99.515.235 1.045-.038.033.52.356.279.427.907.886-.065 1.695 1.433.64 1.718.158-.044.47.235.831.022.613.486 2.226.546 2.27 1.75-1.11.53-.274 1.985-1.236 2.504-1.105-.164-.378 1.362-.843 1.187.186 1.1-1.115-.142-.612.465.924.569-.405.454.01.87-.464-.1.29.863.416 1.219.668 1.083-.574-.24-.94-.602-.35-.7-1.176-2.04-1.406-3.139-.13-1.597-1.367-2.669-1.651-4.227-.285-.87.782-2.264.208-2.75-.498-.39-.296-1.718-.591-2.418.738-3.2 3.084-5.895 5.9-7.492-.289.213 1.658-.553 1.434-.367-.06.137 1.137-.52 1.859-.618-.077.011-1.876.657-1.378.57-.771.377-.077.163.306-.028-.766.563-1.356.404-2.226.902-.875.23-.694 1.138-1.318 1.591.367.066 1.285-.946 1.822-1.301 1.23-.596-.624 1.083.546.36-.393.367-.311.953-.552 1.117-.12-.033.476.284-.492.52zm1.915-2.516c-.126.17-.3.536-.405.312-.142.071-.197.377-.465.131.159-.114.323-.388.011-.218.143-.153 1.411-.585 1.34-.75.224-.142.203-.213-.055-.125-.13-.044.312-.416.903-.465.082 0 .115.055-.033.038-.891.274-.509.197.093 0-.23.131-.388.17-.427.23.602-.219-.032.158.104.131-.17.088.028.115-.3.24.06-.049-.536.356-.181.236-.344.328-.498.333-.585.24zm.525.782c.01-.524.766-.858.672-.886.93-.437-.322.017.41-.377.274-.027.854-.902 1.658-.957.886-.268.476.017 1.132-.235l-.131.11c-.115.016.027.218-.389.524-.044.476-.793.257-.42.766-.242-.345-.602-.01-.148.022-.487.372-1.62.437-2.16 1.055-.35.504-.673.345-.624-.021zm3.888 1.75c-.372.897-.733-.13-.076-.295.164.088.23.115.076.296zm-1.4-1.793c-.11-.405-.022-.192.63-.383.447.323-.4.536-.63.383zm10.183 16.05c-.514-.885.623-1.706 1.006-2.45-.049.87-.158 1.729-1.006 2.45zm1.936-10.122c-.558.044-1.061.175-1.564-.142-1.16-1.27.213 1.433.596.328 1.378.525-.022 2.789-.892 2.554-.486-1.05-1.088-2.204-2.149-2.718.815.902 1.22 2.012 2.095 2.827.06 1.138 1.214-.416 1.143.465.11 1.515-1.712 2.423-1.395 3.943.678 1.383-1.307 1.635-1.082 2.876-.799.892-1.652 2.095-3.085 1.904 0-.755-.383-1.395-.47-2.172-.777-.984.82-2.04-.17-3.067-1.143-.257.235-1.832-.94-1.685-.706-.705-1.74-.022-2.751-.016-1.269.12-2.576-1.559-2.013-2.746-.448-1.236 1.422-1.596 1.471-2.685.897-.749 2.172-.656 3.386-.831-.088.87.83.875 1.525 1.165.389-.94 1.597.153 2.423-.443.284-1.39-.804-.552-1.427-.995-.755-1.105 1.613-.57 1.367-1.149-.919-.005-.4-1.132-1.05-.503.585.104-.104.563-.088.038-.886-.257-.032 1.007-.48 1.127-.684-.285-.362.323-.29.415-.296.64-.657-.94-1.494-.896-.83-.76-.328.344.394.525-.153.043.088.672-.104.404-.596-.82-1.728-1.367-2.4-.36-.072.94-1.986 1.208-1.68.109-.448-1.138 1.39-.033 1.22-.94-1.181-.783.323-.531.722-1.264.908.027.038-.744.465-.968-.044.837.694.678 1.28.52-.143-.482.35-.465.049-.865 1.356-.541-1.034.252-.553-.935-.585-.404-.246.892 0 1.028.017.4-.322.892-.787.055-.678.443-.607-.448-.651-.355-.077-.345.514-.361.52-.963-.05-.383-.039-.585.235-.607.022.055 1.12.071 1.51.525-1.062-.213-.16.175.316.394-.508-.4.203 0-.213-.454.164.033-.454-.624.18-.05-.344-.41.673-.29.072-.595.88.246.36.021-.16-.203-1.432-.853 2.533 1.154.914.263 1.034.224-2.21-.799-.733-.35-.563-.246-.016-.11.493.049-.914-.285-2.28-.815-2.226-.837.317.022.629.093.93.18.935.28-.269-.065-.011-.06 3.215.826 6.032 2.98 7.743 5.797.4.421 1.488 3.205.92 1.97.256.983.294 2.044.431 3.05-.284-.316-.602-1.487-.875-2.138-.115.252-.246-.355-.667-.52z" fill="#fff"/></svg>