<svg width="126" height="100" fill="none" xmlns="http://www.w3.org/2000/svg"><path d="M36.733.2c5.867 0 10.667 2 14.4 6 4 4 6 8.933 6 14.8 0 3.467-.534 6.667-1.6 9.6-1.067 2.933-2.934 6.8-5.6 11.6l-30.4 57.6H.333l25.2-58.4c-3.467-1.6-6.267-4-8.4-7.2-1.867-3.467-2.8-7.2-2.8-11.2 0-6.4 2.133-11.733 6.4-16 4.533-4.533 9.866-6.8 16-6.8zm68 0c5.866 0 10.666 2 14.4 6 4 4 6 8.933 6 14.8 0 3.467-.534 6.667-1.6 9.6-1.067 2.933-2.934 6.8-5.6 11.6l-30.4 57.6h-19.2l25.2-58.4c-3.467-1.6-6.267-4-8.4-7.2-1.867-3.467-2.8-7.2-2.8-11.2 0-6.4 2.133-11.733 6.4-16 4.533-4.533 9.867-6.8 16-6.8z" fill="#004A4A"/></svg>