<svg width="126" height="100" fill="none" xmlns="http://www.w3.org/2000/svg"><path d="M32.333 58.6c3.467 1.6 6.133 4.133 8 7.6 2.133 3.2 3.2 6.8 3.2 10.8 0 6.4-2.267 11.867-6.8 16.4-4.267 4.267-9.467 6.4-15.6 6.4-5.867 0-10.8-1.867-14.8-5.6-3.734-4-5.6-8.933-5.6-14.8 0-3.467.533-6.667 1.6-9.6 1.066-2.933 2.933-6.8 5.6-11.6l30.8-58h19.2l-25.6 58.4zm68 0c3.466 1.6 6.133 4.133 8 7.6 2.133 3.2 3.2 6.8 3.2 10.8 0 6.4-2.267 11.867-6.8 16.4-4.267 4.267-9.467 6.4-15.6 6.4-5.867 0-10.8-1.867-14.8-5.6-3.733-4-5.6-8.933-5.6-14.8 0-3.467.533-6.667 1.6-9.6 1.067-2.933 2.933-6.8 5.6-11.6l30.8-58h19.2l-25.6 58.4z" fill="#004A4A"/></svg>