<svg width="77" height="76" fill="none" xmlns="http://www.w3.org/2000/svg"><circle cx="38.5" cy="38" r="38" fill="#00ADAC"/><g clip-path="url(#clip0)" stroke="#fff" stroke-width="2" stroke-miterlimit="10"><path d="M49.25 55.437V20.562H34.625l-7.875 7.875v27L29 54.313l2.25 1.124 2.25-1.124 2.25 1.124L38 54.313l2.25 1.124 2.25-1.124 2.25 1.124L47 54.313l2.25 1.124z"/><path d="M26.75 28.437h7.875v-7.875m9 23.063s-.525 2.25-4.5 2.25-5.063-3.217-5.063-6.75 1.088-6.188 5.063-6.188c3.975 0 4.5 1.688 4.5 1.688m-11.812 3.938h8.437m-8.437 2.25h8.437"/></g><defs><clipPath id="clip0"><path fill="#fff" transform="translate(20 20)" d="M0 0h36v36H0z"/></clipPath></defs></svg>