<svg width="77" height="76" fill="none" xmlns="http://www.w3.org/2000/svg"><circle cx="38.5" cy="38" r="38" fill="#00ADAC"/><path d="M57.992 47.31c-.08-2.588-.799-5.705-2.02-8.778-1.223-3.075-2.81-5.757-4.47-7.552-1.786-1.93-3.495-2.637-4.817-1.997-.01.005-.022.006-.032.012l-1.551.778v-4.104c0-3.232-4.965-5.669-11.55-5.669-6.572 0-11.53 2.428-11.55 5.65l-.002.02v7.304c0 .039.005.076.01.113a.748.748 0 00-.01.112c0 .066.005.13.01.196a.719.719 0 00-.01.105v7.304c0 .04.005.077.01.114a.754.754 0 00-.01.113c0 .083.006.164.012.245a.77.77 0 00-.012.13v7.305c0 .038.005.076.01.113a.747.747 0 00-.01.112c0 3.232 4.966 5.669 11.553 5.669 4.183 0 7.996-1.072 10.003-2.767C45.352 54.456 47.284 56 48.903 56c.368 0 .722-.08 1.053-.246l6.098-3.06.019-.008c1.326-.664 2.008-2.574 1.92-5.377zM40.717 31.972l-.185.091c-1.274.64-1.918 2.403-1.94 4.818a21.36 21.36 0 01-5.039.586c-6.074 0-10.307-2.25-10.307-4.269a.741.741 0 00-.01-.113.748.748 0 00.01-.112V28.31c1.87 1.83 5.69 3.029 10.306 3.029 4.616 0 8.433-1.198 10.305-3.028v2.087l-3.14 1.575zm-17.482 8.945a.755.755 0 00.01-.114V35.84c1.873 1.83 5.691 3.028 10.308 3.028 1.782 0 3.526-.192 5.094-.557.144 1.776.568 3.806 1.273 5.951-1.888.687-4.025 1.039-6.367 1.039-6.074 0-10.307-2.25-10.307-4.268a.755.755 0 00-.01-.114zm10.317-19.52c6.068 0 10.298 2.247 10.306 4.266v.018c-.019 2.017-4.245 4.258-10.306 4.258-6.073 0-10.306-2.25-10.306-4.27 0-2.02 4.233-4.272 10.306-4.272zm.001 31.809c-6.074 0-10.307-2.25-10.307-4.27a.741.741 0 00-.01-.113.748.748 0 00.01-.112V43.67c1.872 1.829 5.69 3.027 10.307 3.027 2.503 0 4.794-.384 6.825-1.135.082.22.166.44.254.66a30.675 30.675 0 002.201 4.483c-1.755 1.509-5.381 2.5-9.28 2.5zm16.065 1.183l-.176.09c-1.645.82-5.197-2.601-7.673-8.828-2.475-6.228-2.37-11.487-.732-12.31l3.985-1.998c-.225.836-.326 1.853-.289 3.03.081 2.586.8 5.704 2.022 8.78 1.222 3.073 2.809 5.754 4.47 7.549.757.817 1.498 1.407 2.204 1.777l-3.81 1.91zm5.95-2.982l-.003.002-.005.001c-.82.407-2.086-.218-3.472-1.716-1.548-1.673-3.039-4.199-4.196-7.112-1.159-2.914-1.839-5.847-1.915-8.259-.067-2.164.365-3.64 1.186-4.052.165-.082.348-.123.547-.123.788 0 1.82.64 2.928 1.838 1.548 1.673 3.038 4.2 4.196 7.115 1.159 2.912 1.838 5.845 1.914 8.256.068 2.162-.362 3.638-1.18 4.05z" fill="#fff"/></svg>