<svg width="77" height="76" fill="none" xmlns="http://www.w3.org/2000/svg"><circle cx="38.5" cy="38" r="38" fill="#00ADAC"/><path d="M29.994 24.5c-.818 0-1.494.688-1.494 1.506V49.98c0 .818.676 1.494 1.494 1.494h18.858c.819 0 1.506-.676 1.506-1.494V26.006c0-.818-.687-1.506-1.505-1.506h-18.86zm2.748 3.43h13.365c.416 0 .75.335.75.75v3.317c0 .416-.334.75-.75.75H32.742a.748.748 0 01-.75-.75v-3.316c0-.416.335-.75.75-.75zm.24 7.237h.003c.206-.014.412.023.6.105.646.28.948 1.05.675 1.694a1.306 1.306 0 01-1.7.68 1.306 1.306 0 01-.673-1.694 1.292 1.292 0 011.095-.785zm4.178 0h.003c.206-.014.412.023.6.105.646.28.948 1.05.675 1.694a1.305 1.305 0 01-1.7.68 1.306 1.306 0 01-.673-1.694 1.292 1.292 0 011.095-.785zm3.955 0h.003c.202-.013.404.026.589.105.647.28.954 1.047.68 1.694a1.304 1.304 0 01-1.697.68h-.002a1.304 1.304 0 01-.677-1.694 1.3 1.3 0 011.104-.785zm4.122 0h.003a1.28 1.28 0 01.592.105c.645.28.947 1.05.674 1.694a1.306 1.306 0 01-1.7.68 1.306 1.306 0 01-.673-1.694 1.3 1.3 0 011.104-.785zm-12.02.967a.376.376 0 00-.475.187c-.07.17.014.388.188.463a.36.36 0 00.167.03h.003a.361.361 0 00.304-.217.367.367 0 00-.187-.463zm4.178 0a.376.376 0 00-.475.187c-.07.17.014.388.187.463a.37.37 0 00.167.03h.003a.361.361 0 00.305-.217.367.367 0 00-.188-.463zm3.946 0a.376.376 0 00-.472.187.366.366 0 00.185.463h.003c.05.023.105.033.16.03h.004a.362.362 0 00.307-.217.366.366 0 00-.184-.463h-.003zm4.122 0a.376.376 0 00-.475.187c-.07.17.014.388.188.463a.354.354 0 00.164.03h.003a.362.362 0 00.307-.217.367.367 0 00-.187-.463zm-12.48 2.484h.002c.206-.013.412.023.6.106.646.28.948 1.048.675 1.693a1.306 1.306 0 01-1.7.68 1.306 1.306 0 01-.673-1.694 1.292 1.292 0 011.095-.785zm4.177 0h.003c.206-.013.412.023.6.106.646.28.948 1.048.675 1.693a1.306 1.306 0 01-1.7.68 1.306 1.306 0 01-.673-1.694 1.292 1.292 0 011.095-.785zm3.955 0h.003a1.28 1.28 0 01.589.106c.647.278.954 1.047.68 1.693a1.304 1.304 0 01-1.697.68h-.002a1.305 1.305 0 01-.677-1.694c.189-.446.618-.75 1.104-.785zm4.122 0h.003c.203-.012.406.025.592.106.645.28.947 1.048.674 1.693a1.306 1.306 0 01-1.7.68 1.306 1.306 0 01-.673-1.694c.189-.446.618-.75 1.104-.785zm-12.02.967a.376.376 0 00-.475.188.366.366 0 00.188.462c.052.023.11.033.167.03h.003a.362.362 0 00.304-.217.367.367 0 00-.187-.463zm4.178 0a.376.376 0 00-.475.188.367.367 0 00.187.462.37.37 0 00.167.03h.003a.362.362 0 00.305-.217.367.367 0 00-.188-.463zm3.946 0a.375.375 0 00-.472.188.366.366 0 00.185.462h.003c.05.023.105.033.16.03h.004a.362.362 0 00.307-.217.366.366 0 00-.184-.463h-.003zm4.122 0a.376.376 0 00-.475.188.366.366 0 00.188.462.354.354 0 00.164.03h.003a.362.362 0 00.307-.217.367.367 0 00-.187-.463zm-12.48 2.602h.002c.206-.014.412.023.6.105.646.28.948 1.049.675 1.693a1.306 1.306 0 01-1.7.68 1.306 1.306 0 01-.673-1.693 1.293 1.293 0 011.095-.785zm4.177 0h.003c.206-.014.412.023.6.105.646.28.948 1.049.675 1.693a1.306 1.306 0 01-1.7.68 1.306 1.306 0 01-.673-1.693 1.292 1.292 0 011.095-.785zm3.955 0h.003a1.29 1.29 0 01.589.105c.647.279.954 1.047.68 1.693a1.304 1.304 0 01-1.697.68h-.002a1.304 1.304 0 01-.677-1.693 1.296 1.296 0 011.104-.785zm4.122 0h.003a1.28 1.28 0 01.592.105c.645.28.947 1.049.674 1.693a1.306 1.306 0 01-1.7.68 1.306 1.306 0 01-.673-1.693 1.296 1.296 0 011.104-.785zm-12.02.966a.376.376 0 00-.475.188c-.07.17.014.387.188.463a.36.36 0 00.167.029h.003a.361.361 0 00.304-.217.367.367 0 00-.187-.463zm4.178 0a.376.376 0 00-.475.188c-.07.17.014.387.187.463.053.022.11.033.167.029h.003a.361.361 0 00.305-.217.367.367 0 00-.188-.463zm3.946 0a.376.376 0 00-.472.188.366.366 0 00.185.463h.003a.35.35 0 00.16.029h.004a.362.362 0 00.307-.217.366.366 0 00-.184-.463h-.003zm4.122 0a.376.376 0 00-.475.188c-.07.17.014.387.188.463a.354.354 0 00.164.029h.003a.362.362 0 00.307-.217.367.367 0 00-.187-.463zm-12.48 2.83h.002c.206-.013.412.024.6.106.646.28.948 1.049.675 1.693a1.306 1.306 0 01-1.7.68 1.306 1.306 0 01-.673-1.693 1.292 1.292 0 011.095-.786zm4.177 0h.01a1.28 1.28 0 01.589.106c.647.279.954 1.047.68 1.693a1.306 1.306 0 01-1.7.68 1.306 1.306 0 01-.673-1.693 1.292 1.292 0 011.095-.786zm3.955 0h.003a1.28 1.28 0 01.589.106c.647.279.954 1.047.68 1.693a1.304 1.304 0 01-1.697.68h-.002a1.304 1.304 0 01-.677-1.693 1.299 1.299 0 011.104-.786zm4.122 0h.003c.203-.012.406.025.592.106.645.28.947 1.049.674 1.693a1.306 1.306 0 01-1.7.68 1.306 1.306 0 01-.673-1.693 1.299 1.299 0 011.104-.786zm-12.02.967a.376.376 0 00-.475.188c-.07.17.014.387.188.463a.36.36 0 00.167.029h.003a.361.361 0 00.304-.217.367.367 0 00-.187-.463zm4.178 0a.376.376 0 00-.475.188.366.366 0 00.184.463h.003a.359.359 0 00.162.029h.008a.361.361 0 00.305-.217.367.367 0 00-.188-.463zm3.946 0a.376.376 0 00-.472.188.366.366 0 00.185.463h.003a.35.35 0 00.16.029h.004a.362.362 0 00.307-.217.366.366 0 00-.184-.463h-.003zm4.122 0a.376.376 0 00-.475.188c-.07.17.014.387.188.463a.354.354 0 00.164.029h.003a.362.362 0 00.307-.217.367.367 0 00-.187-.463z" fill="#fff"/></svg>