<svg width="40" height="40" fill="none" xmlns="http://www.w3.org/2000/svg"><path d="M20.052 10.287c-5.302 0-9.612 4.31-9.614 9.61-.001 2.163.634 3.783 1.699 5.478l-.97 3.547 3.636-.955c1.63.966 3.185 1.546 5.242 1.548 5.297 0 9.612-4.312 9.613-9.61.002-5.312-4.291-9.617-9.606-9.618zm5.653 13.74c-.24.675-1.395 1.29-1.95 1.373-.498.075-1.128.105-1.82-.115-.42-.133-.958-.312-1.647-.608-2.898-1.252-4.79-4.17-4.935-4.362-.145-.193-1.18-1.567-1.18-2.988 0-1.422.747-2.122 1.012-2.41.265-.289.577-.362.77-.362l.553.01c.177.008.415-.067.65.497.24.578.819 2 .89 2.145.072.145.12.313.024.506-.097.194-.145.314-.289.482l-.433.507c-.145.143-.295.3-.127.59.169.29.749 1.235 1.607 2.001 1.103.985 2.035 1.29 2.323 1.434.289.143.457.12.627-.072.168-.193.722-.843.915-1.133.193-.289.385-.242.65-.145.265.096 1.685.795 1.973.94.289.145.482.216.554.336.075.12.075.699-.167 1.374zM20 0C8.955 0 0 8.955 0 20s8.955 20 20 20 20-8.955 20-20S31.045 0 20 0zm.048 31.467c-1.935 0-3.841-.487-5.53-1.407L8.39 31.667l1.64-5.992a11.536 11.536 0 01-1.543-5.78c.001-6.375 5.188-11.562 11.561-11.562a11.486 11.486 0 018.179 3.39 11.488 11.488 0 013.383 8.18c-.002 6.375-5.188 11.564-11.562 11.564z" fill="#00ADAC"/></svg>